<svg xmlns="http://www.w3.org/2000/svg" width="394" height="253" viewBox="0 0 394 253" version="1.1"><path d="M 198.269 25.693 C 199.242 25.947, 200.592 25.930, 201.269 25.656 C 201.946 25.382, 201.150 25.175, 199.500 25.195 C 197.850 25.215, 197.296 25.439, 198.269 25.693 M 186.500 28.587 C 166.957 33.246, 156.775 38.441, 144.661 49.934 C 107.554 85.141, 113.382 145.789, 156.584 173.991 C 165.722 179.957, 175.818 183.694, 188.349 185.751 C 196.734 187.128, 199.676 187.193, 207.692 186.181 C 216.399 185.081, 240.098 178.139, 235.475 178.042 C 234.323 178.018, 230.293 174.822, 226.127 170.627 L 218.803 163.255 214.152 164.700 C 207.450 166.781, 191.857 166.729, 184.500 164.600 C 162.462 158.224, 146.112 140.940, 141.538 119.185 C 138.680 105.589, 140.328 93.849, 146.992 80.327 C 153.674 66.771, 166.911 55.439, 182 50.359 C 190.477 47.505, 209.286 47.741, 218.190 50.815 C 226.820 53.793, 235.959 59.737, 242.710 66.763 C 251.925 76.354, 258.933 93.761, 258.983 107.185 C 259.002 112.502, 256.697 124.377, 254.863 128.401 C 253.689 130.977, 253.945 131.398, 260.995 138.495 C 265.041 142.568, 268.693 145.690, 269.110 145.432 C 270.588 144.518, 276.187 128.526, 277.583 121.228 C 284.062 87.368, 266.468 51.961, 235.306 36.145 C 224.698 30.761, 216.131 28.778, 202 28.436 C 194.575 28.257, 187.600 28.324, 186.500 28.587" stroke="none" fill="#231e21" fill-rule="evenodd"/><path d="M 0 126.502 L 0 253.005 197.250 252.752 L 394.500 252.500 394.754 126.250 L 395.008 0 197.504 0 L 0 0 0 126.502 M 0.485 127 C 0.485 196.575, 0.604 225.037, 0.750 190.250 C 0.896 155.462, 0.896 98.537, 0.750 63.750 C 0.604 28.962, 0.485 57.425, 0.485 127 M 190.500 18.599 C 154.530 22.023, 123.597 48.645, 113.927 84.500 C 110.838 95.951, 110.849 117.124, 113.949 128.500 C 120.291 151.773, 133.815 170.104, 153.261 181.782 C 164.053 188.263, 171.163 191.079, 182.815 193.488 C 195.739 196.159, 215.158 195.003, 226.500 190.887 C 244.207 184.461, 255.408 176.840, 267.589 162.934 C 275.049 154.417, 281.403 141.886, 285.051 128.500 C 288.151 117.124, 288.162 95.951, 285.073 84.500 C 276.377 52.256, 250.568 27.317, 218.500 20.168 C 212.922 18.925, 196.656 18.013, 190.500 18.599 M 183 24.121 C 163.876 29.263, 152.122 35.688, 140.405 47.405 C 129.568 58.242, 123.209 69.347, 118.463 85.723 C 114.431 99.637, 115.135 119.499, 120.155 133.500 C 128.968 158.076, 148.026 177.375, 171.500 185.494 C 186.159 190.564, 205.155 191.568, 219.244 188.018 C 247.120 180.993, 268.987 160.991, 278.845 133.500 C 283.865 119.499, 284.569 99.637, 280.537 85.723 C 275.791 69.347, 269.432 58.242, 258.595 47.405 C 247.179 35.989, 234.096 28.735, 217.356 24.540 C 210.477 22.816, 188.835 22.553, 183 24.121 M 184.500 25.947 C 160.299 29.998, 136.991 47.698, 126.172 70.241 C 119.577 83.982, 117.450 95.491, 118.362 112.500 C 119.091 126.091, 122.087 136.299, 128.718 147.779 C 139.916 167.166, 157.450 180.704, 179 186.601 C 188.056 189.079, 210.887 189.088, 220 186.617 C 226.873 184.753, 241 178.422, 241 177.205 C 241 176.810, 229.026 164.564, 214.391 149.993 C 188.062 123.779, 182 116.735, 182 112.353 C 182 108.232, 179.031 98.581, 175.854 92.374 C 172.614 86.045, 165.815 78.076, 160.398 74.260 L 157.296 72.075 155.398 74.297 C 153.563 76.446, 149.386 84.505, 147.085 90.334 C 145.366 94.688, 144.681 109.755, 145.875 116.927 C 147.460 126.443, 152.621 136.449, 159.585 143.506 C 168.451 152.491, 171.590 154.630, 181 158.102 C 186.699 160.205, 189.190 160.498, 201.217 160.483 C 210.509 160.472, 214.606 160.795, 213.919 161.483 C 212.360 163.046, 191.483 163.388, 186.115 161.938 C 173.765 158.604, 160.113 149.183, 152.873 139 C 141.395 122.856, 139.835 98.572, 149.142 80.938 C 152.846 73.922, 159.793 65.942, 166.391 61.125 C 176.826 53.506, 185.798 50.675, 199.500 50.675 C 215.888 50.675, 227.240 55.264, 238.607 66.485 C 251.471 79.182, 255.462 88.923, 255.410 107.500 C 255.383 117.304, 254.992 120.466, 253.273 124.781 L 251.169 130.061 260.583 139.506 L 269.996 148.950 272.884 143.225 C 281.519 126.102, 283.473 99.576, 277.442 81.359 C 268.895 55.549, 249.674 36.705, 223 27.988 C 215.715 25.608, 193.550 24.432, 184.500 25.947 M 189.500 52.651 C 182.751 53.747, 174.624 57.308, 167.765 62.175 C 165.146 64.033, 165.098 64.219, 166.630 66.558 C 168.628 69.607, 170.463 69.636, 174.406 66.679 C 181.554 61.319, 193.378 58.566, 204.500 59.671 L 211.500 60.368 202.500 61.555 C 197.550 62.207, 191.003 63.698, 187.951 64.867 C 181.743 67.246, 173 72.489, 173 73.833 C 173 75.072, 183.628 82.261, 189 84.655 C 191.475 85.758, 196.200 87.238, 199.500 87.945 C 211.930 90.607, 211.612 90.388, 230.617 109.269 C 240.582 119.168, 249.061 127.319, 249.460 127.383 C 253.160 127.979, 254.964 98.744, 251.774 89.880 C 245.592 72.698, 234.221 61.445, 215.556 54.035 C 212.417 52.789, 194.506 51.837, 189.500 52.651 M 156.874 85.750 C 151.623 99.157, 151.674 103.101, 156.962 92.575 C 159.142 88.237, 160.690 84.308, 160.403 83.844 C 159.405 82.228, 157.944 83.018, 156.874 85.750 M 216.667 106.667 C 214.651 108.682, 217.973 112.757, 238.046 132.889 C 260.168 155.075, 262.078 156.519, 266 154.010 C 267.196 153.244, 262.745 148.288, 244.008 129.525 C 222.475 107.962, 218.606 104.727, 216.667 106.667 M 203.667 110.667 C 201.678 112.655, 205.125 116.797, 227.522 139.330 C 248.388 160.322, 252.479 164, 254.963 164 C 256.568 164, 258.192 163.499, 258.570 162.886 C 259.427 161.500, 208.161 110, 205.924 110 C 205.049 110, 204.033 110.300, 203.667 110.667 M 199.667 123.667 C 197.734 125.599, 200.855 129.370, 221.258 149.758 C 240.614 169.100, 243.917 172, 246.591 172 C 248.283 172, 249.984 171.683, 250.371 171.296 C 251.351 170.316, 203.887 123, 201.924 123 C 201.049 123, 200.033 123.300, 199.667 123.667 M 79.304 210.956 C 75.258 213.423, 74.727 216.116, 75.163 231.958 C 75.493 243.925, 75.558 244.228, 78.306 246.589 C 84.522 251.930, 94.414 248.603, 95.665 240.750 C 96.245 237.102, 96.178 237, 93.194 237 C 90.464 237, 90.092 237.358, 89.813 240.250 C 89.517 243.323, 89.282 243.500, 85.500 243.500 L 81.500 243.500 81.203 237.295 L 80.907 231.089 88.203 230.795 L 95.500 230.500 95.802 224.083 C 96.181 216.025, 94.650 212.170, 90.360 210.377 C 85.878 208.505, 83.085 208.651, 79.304 210.956 M 159.831 210.530 C 157.034 212.049, 154.395 217.981, 155.377 220.541 C 155.685 221.344, 157.076 222, 158.469 222 C 160.574 222, 161 221.529, 161 219.200 C 161 215.811, 162.625 214, 165.665 214 C 168.496 214, 170 216.709, 170 221.805 L 170 225.742 164.024 226.418 C 156.416 227.279, 155 229.060, 155 237.768 C 155 243.148, 155.366 244.457, 157.455 246.545 C 160.305 249.396, 165.382 249.821, 168.712 247.489 C 170.077 246.533, 171.098 246.350, 171.493 246.989 C 171.837 247.545, 172.766 248, 173.559 248 C 175.558 248, 175.630 215.412, 173.637 212.789 C 170.859 209.133, 164.361 208.070, 159.831 210.530 M 224.894 210.114 C 221.914 211.208, 220 214.727, 220 219.113 C 220 221.817, 220.287 222.100, 222.750 221.816 C 225.053 221.551, 225.552 220.962, 225.818 218.193 C 226.170 214.524, 227.754 213.471, 231.502 214.411 C 233.776 214.982, 234 215.517, 234 220.380 L 234 225.721 228.801 226.337 C 222.691 227.061, 220.171 229.171, 219.346 234.254 C 217.519 245.513, 224.234 252.033, 232.993 247.504 C 234.818 246.560, 236.114 246.375, 236.502 247.004 C 238.447 250.150, 239 246.493, 239 230.485 L 239 212.971 235.750 210.989 C 232.252 208.856, 229.030 208.597, 224.894 210.114 M 255.546 210.679 C 253.489 211.792, 252.477 211.932, 252.213 211.139 C 252.004 210.512, 251.196 210, 250.417 210 C 249.244 210, 249 213.275, 249 229 L 249 248 251.500 248 L 254 248 254 233 C 254 219.333, 254.178 217.822, 256 216 C 257.100 214.900, 258.810 214, 259.800 214 C 263.568 214, 264 215.874, 264 232.200 L 264 248 266.500 248 L 269 248 269 231.582 C 269 222.552, 268.720 214.435, 268.379 213.545 C 267.649 211.643, 262.878 208.983, 260.300 209.040 C 259.310 209.062, 257.171 209.799, 255.546 210.679 M 334.500 210.155 C 331.240 211.938, 330 214.152, 330 218.191 C 330 221.587, 330.271 222, 332.500 222 C 334.675 222, 335 221.560, 335 218.607 C 335 215.149, 336.259 214, 340.047 214 C 342.517 214, 344 216.928, 344 221.805 L 344 225.742 338.024 226.418 C 330.416 227.279, 329 229.060, 329 237.768 C 329 243.148, 329.366 244.457, 331.455 246.545 C 334.310 249.401, 338.886 249.776, 342.443 247.446 C 344.020 246.412, 345.033 246.245, 345.466 246.946 C 345.825 247.526, 346.766 248, 347.559 248 C 348.754 248, 349 245.256, 349 231.934 C 349 222.828, 348.554 215.035, 347.970 213.945 C 345.794 209.878, 338.670 207.874, 334.500 210.155 M 20 212.500 C 20 214.750, 20.400 215, 24 215 L 28 215 28 231.500 L 28 248 30.500 248 L 33 248 33 231.500 L 33 215 36.500 215 C 39.567 215, 40 214.690, 40 212.500 L 40 210 30 210 L 20 210 20 212.500 M 46 229 L 46 248 48.500 248 C 50.971 248, 51 247.900, 51 239.500 L 51 231 56 231 L 61 231 61 239.500 C 61 247.900, 61.029 248, 63.500 248 L 66 248 66 229 L 66 210 63.500 210 C 61.029 210, 61 210.100, 61 218.500 L 61 227 56 227 L 51 227 51 218.500 C 51 210.100, 50.971 210, 48.500 210 L 46 210 46 229 M 116 212.500 C 116 214.056, 116.567 215, 117.500 215 C 118.762 215, 119 217.222, 119 229 C 119 240.778, 118.762 243, 117.500 243 C 116.567 243, 116 243.944, 116 245.500 C 116 247.864, 116.300 248, 121.500 248 C 126.362 248, 127 247.764, 127 245.969 C 127 244.851, 126.325 243.678, 125.500 243.362 C 124.266 242.888, 124 240.320, 124 228.893 C 124 217.210, 124.239 215, 125.500 215 C 126.433 215, 127 214.056, 127 212.500 C 127 210.136, 126.700 210, 121.500 210 C 116.300 210, 116 210.136, 116 212.500 M 134.364 211.495 C 134.048 212.317, 133.950 220.231, 134.145 229.083 C 134.487 244.584, 134.587 245.247, 136.861 247.088 C 143.108 252.147, 150 247.406, 150 238.050 C 150 234.217, 149.839 234, 147 234 C 144.061 234, 144 234.103, 144 239.070 C 144 243.755, 143.829 244.115, 141.750 243.820 C 139.552 243.507, 139.494 243.170, 139.223 229.250 L 138.945 215 143.473 215 C 147.635 215, 148 214.799, 148 212.500 C 148 210.089, 147.769 210, 141.469 210 C 136.596 210, 134.792 210.380, 134.364 211.495 M 185 229 L 185 248 192.500 248 C 199.833 248, 200 247.944, 200 245.500 C 200 243.136, 199.700 243, 194.500 243 L 189 243 189 226.500 C 189 210.667, 188.919 210, 187 210 C 185.070 210, 185 210.667, 185 229 M 205.667 210.667 C 205.300 211.033, 205 219.583, 205 229.667 L 205 248 208 248 L 211 248 211 229 L 211 210 208.667 210 C 207.383 210, 206.033 210.300, 205.667 210.667 M 289.466 216.250 C 289.830 219.688, 290.521 224.975, 291.001 228 C 291.482 231.025, 292.394 236.762, 293.028 240.750 L 294.182 248 297.430 248 L 300.679 248 301.942 240.750 C 302.637 236.762, 303.609 232.195, 304.103 230.601 C 304.596 229.006, 305.031 226.306, 305.070 224.601 C 305.133 221.782, 305.258 221.910, 306.443 226 C 307.159 228.475, 308.300 233.875, 308.977 238 C 310.662 248.266, 310.518 248, 314.375 248 C 317.775 248, 317.819 247.943, 318.442 242.750 C 319.076 237.458, 320.364 229.067, 322.073 219.083 C 323.484 210.838, 323.343 210, 320.545 210 C 318.539 210, 318.005 210.593, 317.623 213.250 C 317.365 215.037, 316.670 219.477, 316.077 223.115 C 315.485 226.754, 315 231.141, 315 232.865 C 315 237.701, 313.206 236.573, 312.432 231.250 C 312.052 228.637, 311.007 222.900, 310.110 218.500 C 308.607 211.134, 308.273 210.476, 305.887 210.198 C 303.445 209.913, 303.226 210.260, 302.092 216.198 C 301.430 219.664, 300.463 224.127, 299.944 226.116 C 299.425 228.105, 299 230.891, 299 232.307 C 299 236.896, 297.242 236.117, 296.591 231.240 C 293.783 210.228, 293.725 210, 291.192 210 C 288.858 210, 288.819 210.143, 289.466 216.250 M 356 220.453 C 356 232.229, 357.009 235.459, 361.138 236.898 C 363.778 237.819, 364 238.288, 364 242.948 C 364 247.670, 364.163 248, 366.500 248 C 368.825 248, 369 247.659, 369 243.121 C 369 238.667, 369.256 238.137, 371.935 237.027 C 375.912 235.380, 377 231.691, 377 219.851 C 377 210.010, 376.997 210, 374.500 210 L 372 210 372 220.378 C 372 232.018, 371.339 233.348, 365.815 232.818 L 362.500 232.500 362.217 221.250 L 361.934 210 358.967 210 L 356 210 356 220.453 M 82.250 214.662 C 81.466 214.979, 81 217.186, 81 220.583 L 81 226 85.500 226 L 90 226 90 221.200 C 90 218.560, 89.460 215.860, 88.800 215.200 C 87.587 213.987, 84.543 213.737, 82.250 214.662 M 161.200 232.200 C 159.938 233.462, 159.574 239.727, 160.607 242.418 C 161.455 244.627, 165.608 244.392, 168 242 C 169.407 240.593, 170 238.667, 170 235.500 L 170 231 166.200 231 C 164.110 231, 161.860 231.540, 161.200 232.200 M 225.409 232.377 C 225.118 233.134, 225.020 235.947, 225.190 238.627 C 225.471 243.048, 225.743 243.528, 228.124 243.804 C 232.065 244.261, 234 241.668, 234 235.929 L 234 231 229.969 231 C 227.468 231, 225.737 231.523, 225.409 232.377 M 334.607 232.582 C 334.273 233.452, 334 235.665, 334 237.500 C 334 242.344, 334.909 244, 337.568 244 C 341.267 244, 344 240.308, 344 235.311 L 344 231 339.607 231 C 336.524 231, 335.033 231.472, 334.607 232.582" stroke="none" fill="#fffefe" fill-rule="evenodd"/><path d="M 187.750 19.662 C 188.438 19.940, 189.563 19.940, 190.250 19.662 C 190.938 19.385, 190.375 19.158, 189 19.158 C 187.625 19.158, 187.063 19.385, 187.750 19.662 M 208.750 19.662 C 209.438 19.940, 210.563 19.940, 211.250 19.662 C 211.938 19.385, 211.375 19.158, 210 19.158 C 208.625 19.158, 208.063 19.385, 208.750 19.662 M 188.250 22.689 C 189.213 22.941, 190.787 22.941, 191.750 22.689 C 192.713 22.438, 191.925 22.232, 190 22.232 C 188.075 22.232, 187.287 22.438, 188.250 22.689 M 207.250 22.689 C 208.213 22.941, 209.787 22.941, 210.750 22.689 C 211.713 22.438, 210.925 22.232, 209 22.232 C 207.075 22.232, 206.287 22.438, 207.250 22.689 M 191.751 26.406 C 192.073 26.927, 190.676 27.047, 188.469 26.689 C 186.232 26.326, 184.081 26.518, 183.321 27.148 C 182.604 27.744, 180.774 28.329, 179.255 28.448 C 177.736 28.568, 175.473 29.212, 174.226 29.879 C 172.979 30.546, 171.518 30.820, 170.979 30.487 C 170.441 30.154, 170 30.434, 170 31.108 C 170 31.782, 169.721 32.055, 169.381 31.714 C 169.040 31.374, 168.082 31.775, 167.252 32.605 C 166.422 33.436, 165.125 33.878, 164.371 33.589 C 163.617 33.300, 163 33.574, 163 34.198 C 163 34.822, 162.727 35.060, 162.394 34.727 C 162.060 34.393, 160.867 34.978, 159.742 36.026 C 158.617 37.073, 157.362 37.724, 156.953 37.471 C 156.544 37.218, 155.941 37.712, 155.612 38.569 C 155.283 39.426, 154.584 39.861, 154.057 39.535 C 153.531 39.210, 152.591 39.895, 151.969 41.058 C 151.347 42.220, 150.577 42.911, 150.259 42.592 C 149.940 42.273, 149.046 42.917, 148.271 44.023 C 147.497 45.129, 146.496 45.807, 146.047 45.529 C 145.153 44.976, 135 55.892, 135 57.406 C 135 57.676, 133.883 59.102, 132.519 60.574 C 131.154 62.047, 130.281 63.645, 130.578 64.126 C 130.875 64.607, 130.718 65, 130.228 65 C 129.738 65, 128.836 66.013, 128.224 67.250 C 118.953 85.968, 116.139 102.893, 119.453 120 C 122.383 135.121, 126.551 144.665, 135.519 156.781 C 144.835 169.368, 162.037 180.777, 179 185.619 C 188.083 188.211, 210.946 188.259, 219.500 185.703 C 227.038 183.450, 236.194 179.861, 235.690 179.356 C 235.479 179.146, 232.253 180.124, 228.519 181.529 C 197.731 193.118, 164.230 185.699, 141.867 162.340 C 131.920 151.950, 125.764 140.544, 122.011 125.553 C 120.104 117.935, 119.846 114.815, 120.271 104.553 C 120.865 90.208, 122.516 83.534, 128.448 71.500 C 136.196 55.781, 147.928 43.965, 163.730 35.965 C 175.582 29.965, 185.204 27.757, 199.500 27.757 C 213.796 27.757, 223.418 29.965, 235.270 35.965 C 251.072 43.965, 262.804 55.781, 270.552 71.500 C 276.484 83.534, 278.135 90.208, 278.729 104.553 C 279.154 114.801, 278.895 117.937, 277 125.500 C 274.765 134.423, 270.300 146, 269.094 146 C 268.740 146, 265.122 142.650, 261.055 138.556 L 253.660 131.111 255.478 125.806 C 258.099 118.158, 258.673 101.208, 256.591 92.932 C 251.127 71.203, 233.184 54.043, 211.185 49.508 C 202.067 47.628, 196.439 47.628, 187.500 49.504 C 165.809 54.059, 147.830 71.374, 142.409 92.932 C 140.163 101.863, 140.853 118.307, 143.814 126.432 C 148.514 139.325, 158.143 151.152, 169.456 157.926 C 181.212 164.965, 198.887 167.838, 211.924 164.828 C 217.236 163.602, 218.793 162.108, 214.501 162.356 C 213.126 162.435, 212.001 162.819, 212.001 163.210 C 212 163.983, 210.107 164.121, 199.500 164.121 C 188.617 164.121, 187 163.983, 187 163.053 C 187 162.577, 186.100 162.423, 185 162.710 C 183.900 162.998, 183 162.745, 183 162.148 C 183 161.551, 182.325 161.322, 181.500 161.638 C 180.675 161.955, 180 161.689, 180 161.048 C 180 160.407, 179.550 160.160, 179 160.500 C 178.450 160.840, 178 160.604, 178 159.976 C 178 159.347, 177.438 159.034, 176.750 159.279 C 175.155 159.849, 170 157.280, 170 155.915 C 170 155.347, 169.597 155.131, 169.105 155.435 C 168.612 155.740, 167.941 155.288, 167.612 154.431 C 167.283 153.574, 166.584 153.139, 166.057 153.465 C 165.531 153.790, 164.612 153.143, 164.015 152.028 C 163.418 150.913, 162.244 150, 161.406 150 C 160.470 150, 160.159 149.518, 160.601 148.750 C 160.997 148.063, 160.954 147.832, 160.506 148.237 C 160.058 148.643, 158.372 147.181, 156.759 144.987 C 155.147 142.794, 153.416 141, 152.913 141 C 152.411 141, 152.100 140.662, 152.222 140.250 C 152.344 139.838, 151.253 137.475, 149.797 135 C 140.887 119.852, 139.696 100.097, 146.730 84.106 C 166.645 38.828, 230.346 37.851, 251.398 82.500 C 257.660 95.781, 258.597 110.509, 254.033 123.904 L 251.851 130.308 260.159 138.660 C 264.728 143.253, 268.903 146.866, 269.435 146.688 C 273.582 145.306, 281.001 119.842, 280.998 107 C 280.996 97.304, 278.083 83.605, 274.086 74.500 C 270.617 66.599, 269.723 65, 268.772 65 C 268.282 65, 268.125 64.607, 268.422 64.126 C 268.719 63.645, 267.846 62.047, 266.481 60.574 C 265.117 59.102, 264 57.676, 264 57.406 C 264 55.865, 253.840 44.981, 252.928 45.544 C 252.466 45.830, 251.344 44.928, 250.435 43.540 C 249.525 42.153, 248.377 41.267, 247.884 41.572 C 247.390 41.877, 246.717 41.426, 246.388 40.569 C 246.059 39.712, 245.384 39.262, 244.888 39.569 C 244.392 39.876, 243.717 39.426, 243.388 38.569 C 243.059 37.712, 242.456 37.218, 242.047 37.471 C 241.638 37.724, 240.383 37.073, 239.258 36.026 C 238.133 34.978, 236.940 34.393, 236.606 34.727 C 236.273 35.060, 236 34.782, 236 34.108 C 236 33.434, 235.591 33.135, 235.090 33.444 C 233.806 34.238, 230.899 32.973, 231.558 31.907 C 231.858 31.421, 231.406 31.291, 230.552 31.618 C 229.696 31.947, 229 31.691, 229 31.048 C 229 30.407, 228.559 30.154, 228.021 30.487 C 227.482 30.820, 226.021 30.546, 224.774 29.879 C 223.527 29.212, 221.264 28.568, 219.745 28.448 C 218.226 28.329, 216.396 27.744, 215.679 27.148 C 214.919 26.518, 212.768 26.326, 210.531 26.689 C 208.324 27.047, 206.927 26.927, 207.249 26.406 C 207.566 25.892, 204.210 25.500, 199.500 25.500 C 194.790 25.500, 191.434 25.892, 191.751 26.406 M 153.441 31.555 C 151.577 33.049, 151.589 33.067, 153.750 32.020 C 154.988 31.420, 156 30.720, 156 30.465 C 156 29.700, 155.481 29.921, 153.441 31.555 M 137 44.500 C 134.571 46.975, 132.809 49, 133.084 49 C 133.359 49, 135.571 46.975, 138 44.500 C 140.429 42.025, 142.191 40, 141.916 40 C 141.641 40, 139.429 42.025, 137 44.500 M 260.958 44.250 C 265.102 48.665, 266 49.459, 266 48.708 C 266 48.548, 263.863 46.410, 261.250 43.958 L 256.500 39.500 260.958 44.250 M 196.768 52.725 C 198.565 52.947, 201.265 52.943, 202.768 52.715 C 204.271 52.486, 202.800 52.304, 199.500 52.310 C 196.200 52.315, 194.971 52.502, 196.768 52.725 M 196.750 58.723 C 198.537 58.945, 201.463 58.945, 203.250 58.723 C 205.037 58.502, 203.575 58.320, 200 58.320 C 196.425 58.320, 194.963 58.502, 196.750 58.723 M 207.750 61.662 C 208.438 61.940, 209.563 61.940, 210.250 61.662 C 210.938 61.385, 210.375 61.158, 209 61.158 C 207.625 61.158, 207.063 61.385, 207.750 61.662 M 216 62.031 C 216 62.564, 216.675 63, 217.500 63 C 218.325 63, 219 62.823, 219 62.607 C 219 62.391, 218.325 61.955, 217.500 61.638 C 216.675 61.322, 216 61.499, 216 62.031 M 234 65.500 C 235.292 66.875, 236.574 68, 236.849 68 C 237.124 68, 236.292 66.875, 235 65.500 C 233.708 64.125, 232.426 63, 232.151 63 C 231.876 63, 232.708 64.125, 234 65.500 M 176.861 71.059 L 174.500 73.119 177.250 71.444 C 178.762 70.523, 180 69.597, 180 69.385 C 180 68.604, 179.165 69.050, 176.861 71.059 M 240 71.500 C 241.292 72.875, 242.574 74, 242.849 74 C 243.124 74, 242.292 72.875, 241 71.500 C 239.708 70.125, 238.426 69, 238.151 69 C 237.876 69, 238.708 70.125, 240 71.500 M 178.433 77.891 C 179.146 79.045, 183 81.374, 183 80.650 C 183 80.419, 181.820 79.457, 180.377 78.511 C 178.934 77.566, 178.059 77.287, 178.433 77.891 M 204.750 88.662 C 205.438 88.940, 206.563 88.940, 207.250 88.662 C 207.938 88.385, 207.375 88.158, 206 88.158 C 204.625 88.158, 204.063 88.385, 204.750 88.662 M 230.710 108.970 C 240.726 119.114, 249.051 127.208, 249.210 126.957 C 249.370 126.705, 241.175 118.406, 231 108.513 L 212.500 90.527 230.710 108.970 M 112.158 96 C 112.158 97.375, 112.385 97.938, 112.662 97.250 C 112.940 96.563, 112.940 95.438, 112.662 94.750 C 112.385 94.063, 112.158 94.625, 112.158 96 M 286.195 96.500 C 286.215 98.150, 286.439 98.704, 286.693 97.731 C 286.947 96.758, 286.930 95.408, 286.656 94.731 C 286.382 94.054, 286.175 94.850, 286.195 96.500 M 115.195 97.500 C 115.215 99.150, 115.439 99.704, 115.693 98.731 C 115.947 97.758, 115.930 96.408, 115.656 95.731 C 115.382 95.054, 115.175 95.850, 115.195 97.500 M 283.195 97.500 C 283.215 99.150, 283.439 99.704, 283.693 98.731 C 283.947 97.758, 283.930 96.408, 283.656 95.731 C 283.382 95.054, 283.175 95.850, 283.195 97.500 M 253.310 106.500 C 253.315 109.800, 253.502 111.029, 253.725 109.232 C 253.947 107.435, 253.943 104.735, 253.715 103.232 C 253.486 101.729, 253.304 103.200, 253.310 106.500 M 115.195 115.500 C 115.215 117.150, 115.439 117.704, 115.693 116.731 C 115.947 115.758, 115.930 114.408, 115.656 113.731 C 115.382 113.054, 115.175 113.850, 115.195 115.500 M 283.195 115.500 C 283.215 117.150, 283.439 117.704, 283.693 116.731 C 283.947 115.758, 283.930 114.408, 283.656 113.731 C 283.382 113.054, 283.175 113.850, 283.195 115.500 M 112.158 117 C 112.158 118.375, 112.385 118.938, 112.662 118.250 C 112.940 117.563, 112.940 116.438, 112.662 115.750 C 112.385 115.063, 112.158 115.625, 112.158 117 M 286.158 117 C 286.158 118.375, 286.385 118.938, 286.662 118.250 C 286.940 117.563, 286.940 116.438, 286.662 115.750 C 286.385 115.063, 286.158 115.625, 286.158 117 M 274 152 C 273.411 153.100, 273.155 154, 273.430 154 C 273.705 154, 274.411 153.100, 275 152 C 275.589 150.900, 275.845 150, 275.570 150 C 275.295 150, 274.589 150.900, 274 152 M 137.500 169 C 140.209 171.750, 142.650 174, 142.925 174 C 143.200 174, 141.209 171.750, 138.500 169 C 135.791 166.250, 133.350 164, 133.075 164 C 132.800 164, 134.791 166.250, 137.500 169 M 260.462 169.250 L 255.500 174.500 260.750 169.538 C 265.628 164.926, 266.459 164, 265.712 164 C 265.554 164, 263.192 166.363, 260.462 169.250 M 145.500 172 C 146.495 173.100, 147.535 174, 147.810 174 C 148.085 174, 147.495 173.100, 146.500 172 C 145.505 170.900, 144.465 170, 144.190 170 C 143.915 170, 144.505 170.900, 145.500 172 M 252.405 172.250 L 250.500 174.500 252.750 172.595 C 254.864 170.805, 255.455 170, 254.655 170 C 254.465 170, 253.453 171.012, 252.405 172.250 M 186.269 193.693 C 187.242 193.947, 188.592 193.930, 189.269 193.656 C 189.946 193.382, 189.150 193.175, 187.500 193.195 C 185.850 193.215, 185.296 193.439, 186.269 193.693 M 210.269 193.693 C 211.242 193.947, 212.592 193.930, 213.269 193.656 C 213.946 193.382, 213.150 193.175, 211.500 193.195 C 209.850 193.215, 209.296 193.439, 210.269 193.693 M 46.465 229.249 C 46.500 247.403, 46.512 247.502, 48.750 247.820 C 50.932 248.129, 51 247.883, 51 239.619 L 51 231.100 56.505 230.718 L 62.010 230.336 56.255 230.418 L 50.500 230.500 50.210 238.750 C 49.985 245.121, 49.592 247, 48.482 247 C 47.297 247, 46.991 243.840, 46.738 228.999 L 46.430 210.998 46.465 229.249 M 50.439 219.500 L 50.500 227.500 55.500 227.578 L 60.500 227.656 55.790 227.277 L 51.079 226.898 50.729 219.199 L 50.379 211.500 50.439 219.500 M 65 228.927 C 65 245.159, 64.835 246.897, 63.250 247.311 C 61.933 247.655, 62.057 247.797, 63.750 247.884 L 66 248 66 229.500 C 66 219.325, 65.775 211, 65.500 211 C 65.225 211, 65 219.067, 65 228.927 M 249.465 229.249 C 249.500 247.403, 249.512 247.502, 251.750 247.820 L 254 248.139 253.779 232.820 L 253.558 217.500 253.252 232.250 C 253.002 244.331, 252.684 247, 251.496 247 C 250.293 247, 249.993 243.920, 249.738 228.999 L 249.430 210.998 249.465 229.249 M 372.365 220.500 C 372.368 226, 372.536 228.122, 372.738 225.216 C 372.941 222.311, 372.939 217.811, 372.734 215.216 C 372.528 212.622, 372.363 215, 372.365 220.500 M 84.269 213.693 C 85.242 213.947, 86.592 213.930, 87.269 213.656 C 87.946 213.382, 87.150 213.175, 85.500 213.195 C 83.850 213.215, 83.296 213.439, 84.269 213.693 M 164.269 213.693 C 165.242 213.947, 166.592 213.930, 167.269 213.656 C 167.946 213.382, 167.150 213.175, 165.500 213.195 C 163.850 213.215, 163.296 213.439, 164.269 213.693 M 228.269 213.693 C 229.242 213.947, 230.592 213.930, 231.269 213.656 C 231.946 213.382, 231.150 213.175, 229.500 213.195 C 227.850 213.215, 227.296 213.439, 228.269 213.693 M 258.750 213.662 C 259.438 213.940, 260.563 213.940, 261.250 213.662 C 261.938 213.385, 261.375 213.158, 260 213.158 C 258.625 213.158, 258.063 213.385, 258.750 213.662 M 337.750 213.662 C 338.438 213.940, 339.563 213.940, 340.250 213.662 C 340.938 213.385, 340.375 213.158, 339 213.158 C 337.625 213.158, 337.063 213.385, 337.750 213.662 M 76.402 229 C 76.402 237.525, 76.556 241.012, 76.743 236.750 C 76.931 232.488, 76.931 225.512, 76.743 221.250 C 76.556 216.988, 76.402 220.475, 76.402 229 M 119.402 229 C 119.402 237.525, 119.556 241.012, 119.743 236.750 C 119.931 232.488, 119.931 225.512, 119.743 221.250 C 119.556 216.988, 119.402 220.475, 119.402 229 M 160.384 215.442 C 160.080 216.234, 160.007 217.697, 160.223 218.692 C 160.467 219.821, 160.809 219.279, 161.134 217.250 C 161.678 213.844, 161.325 212.991, 160.384 215.442 M 94.196 222.206 L 94 229.912 86.750 230.257 L 79.500 230.603 86.781 230.801 C 92.114 230.947, 94.201 230.639, 94.581 229.651 C 94.865 228.909, 94.939 225.196, 94.745 221.401 L 94.392 214.500 94.196 222.206 M 138.395 228.500 C 138.396 236.200, 138.553 239.218, 138.743 235.206 C 138.934 231.195, 138.932 224.895, 138.741 221.206 C 138.549 217.518, 138.393 220.800, 138.395 228.500 M 156.232 218 C 156.232 219.925, 156.438 220.713, 156.689 219.750 C 156.941 218.787, 156.941 217.213, 156.689 216.250 C 156.438 215.287, 156.232 216.075, 156.232 218 M 238.223 230.941 C 238.036 244.730, 237.790 247.095, 236.697 245.601 C 235.451 243.896, 235.335 243.899, 233.996 245.660 C 232.882 247.124, 232.875 247.252, 233.963 246.285 C 235.051 245.318, 235.587 245.420, 236.583 246.783 C 237.273 247.726, 238.110 248.224, 238.444 247.890 C 238.778 247.556, 238.915 239.906, 238.749 230.891 L 238.447 214.500 238.223 230.941 M 174.222 231.309 C 174.058 242.958, 173.696 246.930, 172.845 246.405 C 172.101 245.945, 171.964 246.132, 172.458 246.933 C 174.356 250.003, 175.033 245.271, 174.749 230.923 L 174.444 215.500 174.222 231.309 M 224.195 218.500 C 224.215 220.150, 224.439 220.704, 224.693 219.731 C 224.947 218.758, 224.930 217.408, 224.656 216.731 C 224.382 216.054, 224.175 216.850, 224.195 218.500 M 264.461 231.749 C 264.498 246.820, 264.586 247.500, 266.500 247.500 C 268.415 247.500, 268.502 246.820, 268.541 231.500 L 268.581 215.500 268.265 231.250 C 268.006 244.193, 267.691 247, 266.500 247 C 265.310 247, 264.994 244.225, 264.736 231.499 L 264.421 215.998 264.461 231.749 M 170.300 222 C 170.300 225.025, 170.487 226.262, 170.716 224.750 C 170.945 223.238, 170.945 220.762, 170.716 219.250 C 170.487 217.738, 170.300 218.975, 170.300 222 M 290.158 220 C 290.158 221.375, 290.385 221.938, 290.662 221.250 C 290.940 220.563, 290.940 219.438, 290.662 218.750 C 290.385 218.063, 290.158 218.625, 290.158 220 M 305.731 221.080 C 306.085 222.432, 306.538 222.886, 306.788 222.137 C 307.028 221.415, 306.750 220.350, 306.168 219.768 C 305.426 219.026, 305.296 219.417, 305.731 221.080 M 320.158 224 C 320.158 225.375, 320.385 225.938, 320.662 225.250 C 320.940 224.563, 320.940 223.438, 320.662 222.750 C 320.385 222.063, 320.158 222.625, 320.158 224 M 295.158 228 C 295.158 229.375, 295.385 229.938, 295.662 229.250 C 295.940 228.563, 295.940 227.438, 295.662 226.750 C 295.385 226.063, 295.158 226.625, 295.158 228 M 156.980 229.524 C 156.284 230.362, 155.909 231.242, 156.145 231.479 C 156.382 231.715, 157.125 231.030, 157.796 229.955 C 159.248 227.630, 158.764 227.375, 156.980 229.524 M 160.685 230.699 C 160.412 231.140, 162.369 231.346, 165.035 231.157 L 169.883 230.815 170.273 235.157 L 170.663 239.500 170.582 235 L 170.500 230.500 165.841 230.199 C 163.278 230.033, 160.958 230.258, 160.685 230.699 M 228.264 230.718 C 229.784 230.947, 232.034 230.941, 233.264 230.704 C 234.494 230.467, 233.250 230.279, 230.500 230.286 C 227.750 230.294, 226.744 230.488, 228.264 230.718 M 315.158 232 C 315.158 233.375, 315.385 233.938, 315.662 233.250 C 315.940 232.563, 315.940 231.438, 315.662 230.750 C 315.385 230.063, 315.158 230.625, 315.158 232 M 334.629 230.791 C 334.360 231.226, 335.796 231.425, 337.820 231.233 C 344.004 230.647, 344.733 230.238, 339.809 230.116 C 337.229 230.052, 334.898 230.356, 334.629 230.791 M 329.300 238 C 329.300 241.025, 329.487 242.262, 329.716 240.750 C 329.945 239.238, 329.945 236.762, 329.716 235.250 C 329.487 233.738, 329.300 234.975, 329.300 238 M 333.286 237.500 C 333.294 240.250, 333.488 241.256, 333.718 239.736 C 333.947 238.216, 333.941 235.966, 333.704 234.736 C 333.467 233.506, 333.279 234.750, 333.286 237.500 M 145.750 234.662 C 146.438 234.940, 147.563 234.940, 148.250 234.662 C 148.938 234.385, 148.375 234.158, 147 234.158 C 145.625 234.158, 145.063 234.385, 145.750 234.662 M 159.252 237.500 C 159.263 239.700, 159.468 240.482, 159.707 239.238 C 159.946 237.994, 159.937 236.194, 159.687 235.238 C 159.437 234.282, 159.241 235.300, 159.252 237.500 M 92.191 237.678 C 93.208 237.946, 94.041 239.395, 94.281 241.312 C 94.664 244.375, 94.686 244.353, 94.840 240.750 C 94.981 237.450, 94.730 237.014, 92.750 237.116 C 91.151 237.198, 90.990 237.361, 92.191 237.678 M 313.667 237.667 C 313.300 238.033, 313.014 239.046, 313.030 239.917 C 313.055 241.217, 313.251 241.174, 314.122 239.675 C 315.199 237.823, 314.887 236.447, 313.667 237.667 M 364.405 242 C 364.488 246.802, 364.754 247.500, 366.500 247.500 C 368.246 247.500, 368.512 246.802, 368.595 242 L 368.691 236.500 368.293 241.750 C 368.018 245.385, 367.466 247, 366.500 247 C 365.534 247, 364.982 245.385, 364.707 241.750 L 364.309 236.500 364.405 242 M 341.139 243.033 C 339.841 244.115, 339.209 245, 339.734 245 C 340.260 245, 341.505 244.100, 342.500 243 C 344.787 240.473, 344.195 240.487, 341.139 243.033 M 116.316 245.500 C 116.484 247.159, 117.283 247.514, 121.009 247.582 L 125.500 247.663 121.313 247.279 C 118.466 247.018, 116.965 246.353, 116.621 245.198 C 116.252 243.959, 116.169 244.041, 116.316 245.500 M 199 245.290 C 199 246.606, 197.630 246.978, 191.750 247.257 L 184.500 247.603 191.781 247.801 C 197.549 247.959, 199.186 247.679, 199.655 246.457 C 199.981 245.608, 199.966 244.633, 199.624 244.290 C 199.281 243.947, 199 244.397, 199 245.290 M 294.251 246 C 294.478 246.846, 295.928 247.569, 297.577 247.659 C 300.094 247.795, 300.153 247.747, 298 247.308 C 296.625 247.028, 295.128 246.281, 294.674 245.649 C 294.122 244.881, 293.981 244.997, 294.251 246 M 311 247.173 C 311 247.628, 312.350 248, 314 248 C 315.650 248, 317 247.826, 317 247.613 C 317 247.401, 315.650 247.029, 314 246.787 C 312.350 246.545, 311 246.718, 311 247.173 M 28.750 247.662 C 29.438 247.940, 30.563 247.940, 31.250 247.662 C 31.938 247.385, 31.375 247.158, 30 247.158 C 28.625 247.158, 28.063 247.385, 28.750 247.662 M 206.750 247.662 C 207.438 247.940, 208.563 247.940, 209.250 247.662 C 209.938 247.385, 209.375 247.158, 208 247.158 C 206.625 247.158, 206.063 247.385, 206.750 247.662 M 84.269 248.693 C 85.242 248.947, 86.592 248.930, 87.269 248.656 C 87.946 248.382, 87.150 248.175, 85.500 248.195 C 83.850 248.215, 83.296 248.439, 84.269 248.693 M 140.750 248.662 C 141.438 248.940, 142.563 248.940, 143.250 248.662 C 143.938 248.385, 143.375 248.158, 142 248.158 C 140.625 248.158, 140.063 248.385, 140.750 248.662 M 162.750 248.662 C 163.438 248.940, 164.563 248.940, 165.250 248.662 C 165.938 248.385, 165.375 248.158, 164 248.158 C 162.625 248.158, 162.063 248.385, 162.750 248.662 M 226.750 248.662 C 227.438 248.940, 228.563 248.940, 229.250 248.662 C 229.938 248.385, 229.375 248.158, 228 248.158 C 226.625 248.158, 226.063 248.385, 226.750 248.662" stroke="none" fill="#f57e82" fill-rule="evenodd"/><path d="M 186 20.057 C 158.795 24.078, 133.393 42.993, 120.947 68.496 C 114.529 81.647, 112.515 91.086, 112.626 107.500 C 112.708 119.591, 113.082 122.700, 115.369 130.297 C 123.650 157.796, 143.578 179.322, 169.429 188.690 C 180.615 192.744, 184.551 193.354, 199.500 193.354 C 214.449 193.354, 218.385 192.744, 229.571 188.690 C 265.247 175.761, 289.167 139.151, 286.600 101.402 C 283.080 49.647, 237.137 12.498, 186 20.057 M 178.970 24.381 C 153.705 30.971, 133.166 48.050, 122.518 71.325 C 116.958 83.478, 115.508 90.756, 115.508 106.500 C 115.508 122.296, 116.956 129.518, 122.594 141.840 C 133.565 165.815, 156.613 184.250, 182.370 189.653 C 191.504 191.570, 207.496 191.570, 216.630 189.653 C 247.718 183.132, 273.339 158.632, 281.629 127.500 C 284.244 117.676, 284.244 95.324, 281.629 85.500 C 274.374 58.257, 253.465 35.469, 227.500 26.510 C 212.628 21.378, 193.670 20.546, 178.970 24.381 M 186 54.416 C 179.002 56.504, 175.879 57.886, 170.782 61.148 C 166.207 64.076, 166.110 64.239, 167.596 66.507 L 169.129 68.845 173.314 66.058 C 183.621 59.196, 198.513 56.473, 209.846 59.380 C 219.463 61.847, 220.279 62.824, 212.238 62.249 C 200.281 61.394, 186.977 64.866, 177.475 71.323 L 173.789 73.828 178.645 77.387 C 185.506 82.416, 192.782 85.690, 200.152 87.065 C 203.643 87.717, 207.850 88.717, 209.500 89.289 C 211.207 89.880, 220.380 98.122, 230.786 108.414 C 244.811 122.286, 249.278 126.167, 249.957 125.069 C 253.607 119.166, 253.695 98.652, 250.114 88.539 C 244.919 73.869, 232.274 61.228, 217.348 55.785 C 210.041 53.120, 192.858 52.370, 186 54.416 M 79.750 211.572 L 77 213.064 77 228.975 C 77 244.284, 77.084 244.946, 79.223 246.443 C 80.445 247.299, 83.270 248, 85.500 248 C 91.109 248, 94 245.770, 94 241.443 C 94 239.049, 93.543 238, 92.500 238 C 91.601 238, 91 238.922, 91 240.300 C 91 243.448, 89.184 245, 85.500 245 C 81.005 245, 80 243.410, 80 236.300 L 80 230 87 230 L 94 230 94 222.073 C 94 214.700, 93.816 214, 91.365 212.073 C 88.294 209.657, 83.649 209.457, 79.750 211.572 M 160.500 211.195 C 157.692 212.787, 157.033 214.027, 157.015 217.750 C 157.005 219.979, 157.471 221, 158.500 221 C 159.502 221, 160 219.998, 160 217.979 C 160 214.461, 163.322 212.362, 167.307 213.362 C 170.048 214.050, 170.966 216.392, 170.986 222.750 L 171 227 165.955 227 C 158.573 227, 156 229.832, 156 237.955 C 156 242.667, 156.441 244.441, 158 246 C 160.693 248.693, 166.349 248.651, 169.081 245.919 C 171.085 243.915, 171.213 243.906, 172.549 245.669 C 173.750 247.254, 173.941 245.263, 173.968 230.823 L 174 214.145 171.365 212.073 C 168.484 209.807, 163.639 209.415, 160.500 211.195 M 225.315 211.007 C 222.679 212.069, 221 214.959, 221 218.434 C 221 220.048, 221.556 221, 222.500 221 C 223.407 221, 224 220.073, 224 218.655 C 224 214.210, 228.811 211.758, 233.066 214.035 C 234.639 214.877, 235 216.160, 235 220.911 L 235 226.752 229.449 227.213 C 221.882 227.840, 220.500 229.418, 220.500 237.431 C 220.500 242.281, 220.952 244.290, 222.405 245.895 C 224.977 248.737, 231.004 248.758, 233.560 245.934 C 235.326 243.982, 235.501 243.965, 236.715 245.625 C 237.780 247.081, 238 244.444, 238 230.217 L 238 213.051 235.050 211.526 C 231.788 209.839, 228.632 209.671, 225.315 211.007 M 255.580 212.116 C 252.968 214.170, 252.849 214.178, 251.477 212.366 C 250.242 210.736, 250.060 212.808, 250.032 228.750 C 250.005 244.320, 250.220 247, 251.500 247 C 252.765 247, 253 244.717, 253 232.455 C 253 218.345, 253.073 217.836, 255.455 215.455 C 258.276 212.633, 261.170 212.312, 263.429 214.571 C 264.721 215.864, 265 218.879, 265 231.571 C 265 244.619, 265.231 247, 266.500 247 C 267.772 247, 267.998 244.535, 267.985 230.750 C 267.976 221.813, 267.639 214.005, 267.235 213.400 C 266.169 211.804, 262.437 210, 260.201 210 C 259.139 210, 257.059 210.952, 255.580 212.116 M 334.364 211.117 C 330.222 213.224, 328.362 221, 332 221 C 333.559 221, 334 220.333, 334 217.979 C 334 214.098, 337.659 212.068, 341.500 213.818 C 343.764 214.849, 344 215.526, 344 220.979 L 344 227 339.934 227 C 335.830 227, 332.116 228.377, 330.765 230.400 C 330.361 231.005, 330.024 234.313, 330.015 237.750 C 329.997 245.174, 332.009 248, 337.311 248 C 339.241 248, 341.519 247.165, 342.770 246 C 345.337 243.608, 346 243.505, 346 245.500 C 346 246.325, 346.450 247, 347 247 C 347.625 247, 348 241.037, 348 231.111 C 348 217.433, 347.755 214.919, 346.240 213.048 C 344.194 210.521, 337.632 209.455, 334.364 211.117 M 21 212.500 C 21 213.548, 22.056 214, 24.500 214 L 28 214 28 230.500 C 28 246.333, 28.081 247, 30 247 C 31.919 247, 32 246.333, 32 230.500 L 32 214 35.500 214 C 37.944 214, 39 213.548, 39 212.500 C 39 211.278, 37.333 211, 30 211 C 22.667 211, 21 211.278, 21 212.500 M 47 229 C 47 244.112, 47.234 247, 48.460 247 C 49.598 247, 49.983 245.182, 50.210 238.750 L 50.500 230.500 56.250 230.200 L 62 229.900 62 238.450 C 62 245.383, 62.284 247, 63.500 247 C 64.778 247, 65 244.333, 65 229 C 65 213.888, 64.766 211, 63.540 211 C 62.402 211, 62.017 212.818, 61.790 219.250 L 61.500 227.500 56 227.500 L 50.500 227.500 50.210 219.250 C 49.983 212.818, 49.598 211, 48.460 211 C 47.234 211, 47 213.888, 47 229 M 117 212.500 C 117 213.325, 117.675 214, 118.500 214 C 119.767 214, 120 216.333, 120 229 C 120 241.667, 119.767 244, 118.500 244 C 117.675 244, 117 244.675, 117 245.500 C 117 246.611, 118.167 247, 121.500 247 C 124.833 247, 126 246.611, 126 245.500 C 126 244.675, 125.325 244, 124.500 244 C 123.233 244, 123 241.667, 123 229 C 123 216.333, 123.233 214, 124.500 214 C 125.325 214, 126 213.325, 126 212.500 C 126 211.389, 124.833 211, 121.500 211 C 118.167 211, 117 211.389, 117 212.500 M 135 227.500 C 135 242.667, 135.162 244.162, 137 246 C 138.989 247.989, 143.500 248.637, 145.600 247.235 C 147.546 245.936, 149 242.228, 149 238.566 C 149 235.700, 148.618 235, 147.055 235 C 145.444 235, 145.057 235.816, 144.805 239.750 C 144.548 243.756, 144.158 244.549, 142.318 244.811 C 138.672 245.330, 137.917 242.190, 138.221 227.761 L 138.500 214.500 142.750 214.193 C 145.644 213.983, 147 213.425, 147 212.443 C 147 211.346, 145.560 211, 141 211 L 135 211 135 227.500 M 185 229 L 185 247 192 247 C 197.556 247, 199 246.690, 199 245.500 C 199 244.367, 197.778 244, 194 244 L 189 244 189 227.500 C 189 211.667, 188.919 211, 187 211 C 185.074 211, 185 211.667, 185 229 M 206 229 C 206 246.333, 206.074 247, 208 247 C 209.926 247, 210 246.333, 210 229 C 210 211.667, 209.926 211, 208 211 C 206.074 211, 206 211.667, 206 229 M 289.398 212.750 C 289.692 213.713, 290.871 221.025, 292.018 229 C 294.611 247.024, 294.604 247, 297.485 247 C 300.056 247, 299.916 247.433, 303.547 228.233 C 304.511 223.137, 305.570 219.236, 305.900 219.565 C 306.230 219.894, 307.633 226.089, 309.017 233.332 C 311.480 246.216, 311.593 246.507, 314.267 246.816 C 315.770 246.990, 317 246.918, 317 246.656 C 317 246.394, 317.909 240.177, 319.020 232.840 C 322.569 209.404, 322.450 211, 320.655 211 C 318.763 211, 318.546 211.821, 316.410 227 C 315.520 233.325, 314.492 239.046, 314.127 239.713 C 313.761 240.380, 312.186 234.192, 310.625 225.963 C 308.201 213.176, 307.522 211, 305.961 211 C 303.813 211, 303.768 211.134, 300.961 225.944 C 297.474 244.345, 297.874 244.754, 293.908 218.750 C 292.904 212.168, 292.435 211, 290.795 211 C 289.421 211, 289.019 211.504, 289.398 212.750 M 357 221.545 C 357 231.409, 357.159 232.250, 359.455 234.545 C 360.805 235.895, 362.605 237, 363.455 237 C 364.642 237, 365 238.157, 365 242 C 365 245.778, 365.367 247, 366.500 247 C 367.633 247, 368 245.778, 368 242 C 368 238.157, 368.358 237, 369.545 237 C 370.395 237, 372.195 235.895, 373.545 234.545 C 375.841 232.250, 376 231.409, 376 221.545 C 376 212.838, 375.739 211, 374.500 211 C 373.274 211, 373 212.697, 373 220.277 C 373 231.256, 371.729 234, 366.643 234 C 361.571 234, 361 232.715, 361 221.300 C 361 211.667, 360.871 211, 359 211 C 357.126 211, 357 211.667, 357 221.545 M 81.750 214.080 C 80.394 214.870, 80 216.438, 80 221.050 L 80 227 85.500 227 L 91 227 91 221.035 C 91 216.161, 90.646 214.881, 89.066 214.035 C 86.649 212.742, 84.020 212.758, 81.750 214.080 M 159.996 232.510 C 158.737 235.823, 158.730 239.159, 159.975 242.435 C 160.718 244.389, 161.654 245, 163.903 245 C 168.314 245, 171.176 240.872, 170.797 235.056 L 170.500 230.500 165.746 230.195 C 161.411 229.917, 160.905 230.121, 159.996 232.510 M 225.200 231.200 C 223.950 232.450, 223.552 240.668, 224.607 243.418 C 225.469 245.664, 230.591 245.409, 233 243 C 234.515 241.485, 235 239.667, 235 235.500 L 235 230 230.700 230 C 228.335 230, 225.860 230.540, 225.200 231.200 M 334.035 231.934 C 333.466 232.998, 333 235.503, 333 237.500 C 333 242.648, 334.530 245, 337.880 245 C 342.192 245, 344 242.244, 344 235.671 L 344 230 339.535 230 C 336.144 230, 334.821 230.465, 334.035 231.934" stroke="none" fill="#ed1c24" fill-rule="evenodd"/><path d="M 193.750 25.662 C 194.438 25.940, 195.563 25.940, 196.250 25.662 C 196.938 25.385, 196.375 25.158, 195 25.158 C 193.625 25.158, 193.063 25.385, 193.750 25.662 M 202.750 25.662 C 203.438 25.940, 204.563 25.940, 205.250 25.662 C 205.938 25.385, 205.375 25.158, 204 25.158 C 202.625 25.158, 202.063 25.385, 202.750 25.662 M 188.269 26.693 C 189.242 26.947, 190.592 26.930, 191.269 26.656 C 191.946 26.382, 191.150 26.175, 189.500 26.195 C 187.850 26.215, 187.296 26.439, 188.269 26.693 M 208.269 26.693 C 209.242 26.947, 210.592 26.930, 211.269 26.656 C 211.946 26.382, 211.150 26.175, 209.500 26.195 C 207.850 26.215, 207.296 26.439, 208.269 26.693 M 178.500 28 C 177.239 28.542, 177.055 28.859, 178 28.859 C 178.825 28.859, 180.400 28.473, 181.500 28 C 182.761 27.458, 182.945 27.141, 182 27.141 C 181.175 27.141, 179.600 27.527, 178.500 28 M 196.768 27.725 C 198.565 27.947, 201.265 27.943, 202.768 27.715 C 204.271 27.486, 202.800 27.304, 199.500 27.310 C 196.200 27.315, 194.971 27.502, 196.768 27.725 M 217.500 28 C 218.600 28.473, 220.175 28.859, 221 28.859 C 221.945 28.859, 221.761 28.542, 220.500 28 C 219.400 27.527, 217.825 27.141, 217 27.141 C 216.055 27.141, 216.239 27.458, 217.500 28 M 172 30 C 171.175 30.533, 170.950 30.969, 171.500 30.969 C 172.050 30.969, 173.175 30.533, 174 30 C 174.825 29.467, 175.050 29.031, 174.500 29.031 C 173.950 29.031, 172.825 29.467, 172 30 M 225 30 C 225.825 30.533, 226.950 30.969, 227.500 30.969 C 228.050 30.969, 227.825 30.533, 227 30 C 226.175 29.467, 225.050 29.031, 224.500 29.031 C 223.950 29.031, 224.175 29.467, 225 30 M 154.923 38.250 C 154.384 40.014, 154.290 42.043, 154.771 41.563 C 155.500 40.833, 156.010 38, 155.412 38 C 155.185 38, 154.966 38.112, 154.923 38.250 M 243.379 39.379 C 243.506 40.239, 243.888 41.221, 244.229 41.563 C 244.571 41.904, 244.747 41.480, 244.621 40.621 C 244.494 39.761, 244.112 38.779, 243.771 38.437 C 243.429 38.096, 243.253 38.520, 243.379 39.379 M 246.588 41 C 247.073 41.825, 247.476 42.800, 247.485 43.167 C 247.493 43.533, 247.804 44.137, 248.175 44.508 C 248.546 44.880, 248.744 44.462, 248.615 43.582 C 248.486 42.701, 247.778 41.422, 247.043 40.740 C 245.960 39.735, 245.874 39.784, 246.588 41 M 150.923 41.250 C 150.384 43.014, 150.290 45.043, 150.771 44.563 C 151.500 43.833, 152.010 41, 151.412 41 C 151.185 41, 150.966 41.112, 150.923 41.250 M 146.500 45 C 145.505 46.100, 145.073 47, 145.541 47 C 146.009 47, 144.842 48.688, 142.946 50.750 L 139.500 54.500 143.235 51.068 C 145.289 49.181, 146.751 47.417, 146.483 47.150 C 146.215 46.882, 146.741 45.838, 147.653 44.831 C 148.564 43.824, 149.085 43, 148.810 43 C 148.535 43, 147.495 43.900, 146.500 45 M 255 50.500 C 256.866 52.425, 258.617 54, 258.892 54 C 259.167 54, 257.866 52.425, 256 50.500 C 254.134 48.575, 252.383 47, 252.108 47 C 251.833 47, 253.134 48.575, 255 50.500 M 157.405 65.250 L 155.500 67.500 157.750 65.595 C 158.988 64.547, 160 63.535, 160 63.345 C 160 62.545, 159.195 63.136, 157.405 65.250 M 240.500 65 C 241.495 66.100, 242.535 67, 242.810 67 C 243.085 67, 242.495 66.100, 241.500 65 C 240.505 63.900, 239.465 63, 239.190 63 C 238.915 63, 239.505 63.900, 240.500 65 M 155.721 74.782 C 152.080 78.869, 147.733 89.533, 146.213 98.109 C 144.752 106.350, 144.755 107.775, 146.248 115.516 C 148.332 126.327, 152.697 135.410, 159.276 142.624 C 172.125 156.711, 189.801 162.696, 209.755 159.715 C 214.740 158.970, 215.070 159.059, 216.152 161.433 C 216.779 162.811, 217.598 163.749, 217.971 163.518 C 218.343 163.288, 221.979 166.452, 226.049 170.550 C 232.252 176.794, 233.980 178, 236.725 178 C 238.526 178, 240 177.659, 240 177.243 C 240 176.827, 228.046 164.564, 213.435 149.993 C 198.824 135.422, 185.801 121.700, 184.494 119.500 C 183.188 117.300, 181.423 112.125, 180.573 108 C 178.503 97.953, 173.205 87.523, 166.772 80.827 C 159.906 73.682, 157.752 72.503, 155.721 74.782 M 156.661 84.750 C 154.472 89.080, 152.210 97.065, 151.709 102.232 C 151.201 107.471, 152.462 107.824, 153.519 102.739 C 153.889 100.957, 155.959 96.184, 158.119 92.130 C 161.177 86.391, 161.793 84.455, 160.901 83.380 C 159.217 81.351, 158.216 81.675, 156.661 84.750 M 140.320 107 C 140.320 110.575, 140.502 112.037, 140.723 110.250 C 140.945 108.463, 140.945 105.537, 140.723 103.750 C 140.502 101.963, 140.320 103.425, 140.320 107 M 258.320 107 C 258.320 110.575, 258.502 112.037, 258.723 110.250 C 258.945 108.463, 258.945 105.537, 258.723 103.750 C 258.502 101.963, 258.320 103.425, 258.320 107 M 216.496 108.007 C 215.465 109.674, 218.950 113.610, 239.730 134.250 C 255.041 149.458, 260.195 154, 262.140 154 C 263.530 154, 264.984 153.683, 265.371 153.296 C 266.385 152.282, 220.851 107, 218.817 107 C 217.883 107, 216.838 107.453, 216.496 108.007 M 203.435 112.105 C 202.731 113.244, 252.723 164.013, 254.522 163.985 C 255.060 163.976, 256.175 163.537, 257 163.009 C 258.196 162.244, 253.329 156.872, 233.007 136.525 C 218.986 122.486, 206.750 111, 205.816 111 C 204.882 111, 203.811 111.497, 203.435 112.105 M 200.667 123.667 C 200.300 124.033, 200 125.059, 200 125.946 C 200 127.735, 243.943 172, 245.719 172 C 251.112 172, 249.863 170.378, 226.356 146.855 C 213.244 133.735, 202.250 123, 201.924 123 C 201.599 123, 201.033 123.300, 200.667 123.667 M 164.869 153.342 C 165.481 154.080, 165.649 155.052, 165.241 155.502 C 164.834 155.952, 165.084 155.983, 165.799 155.571 C 166.799 154.994, 166.828 154.498, 165.926 153.411 C 165.282 152.635, 164.530 152, 164.255 152 C 163.980 152, 164.256 152.604, 164.869 153.342 M 170 156.449 C 170 156.724, 171.350 157.647, 173 158.500 C 174.650 159.353, 176 159.826, 176 159.551 C 176 159.276, 174.650 158.353, 173 157.500 C 171.350 156.647, 170 156.174, 170 156.449 M 196.768 164.725 C 198.565 164.947, 201.265 164.943, 202.768 164.715 C 204.271 164.486, 202.800 164.304, 199.500 164.310 C 196.200 164.315, 194.971 164.502, 196.768 164.725" stroke="none" fill="#26863d" fill-rule="evenodd"/><path d="" stroke="none" fill="#8c2229" fill-rule="evenodd"/><path d="M 196.768 18.725 C 198.565 18.947, 201.265 18.943, 202.768 18.715 C 204.271 18.486, 202.800 18.304, 199.500 18.310 C 196.200 18.315, 194.971 18.502, 196.768 18.725 M 183.750 19.662 C 184.438 19.940, 185.563 19.940, 186.250 19.662 C 186.938 19.385, 186.375 19.158, 185 19.158 C 183.625 19.158, 183.063 19.385, 183.750 19.662 M 212.750 19.662 C 213.438 19.940, 214.563 19.940, 215.250 19.662 C 215.938 19.385, 215.375 19.158, 214 19.158 C 212.625 19.158, 212.063 19.385, 212.750 19.662 M 195.728 22.722 C 197.503 22.943, 200.653 22.946, 202.728 22.730 C 204.802 22.513, 203.350 22.333, 199.500 22.328 C 195.650 22.324, 193.952 22.501, 195.728 22.722 M 158.441 35.555 C 156.577 37.049, 156.589 37.067, 158.750 36.020 C 159.988 35.420, 161 34.720, 161 34.465 C 161 33.700, 160.481 33.921, 158.441 35.555 M 238 34.430 C 238 34.705, 238.900 35.411, 240 36 C 241.100 36.589, 242 36.845, 242 36.570 C 242 36.295, 241.100 35.589, 240 35 C 238.900 34.411, 238 34.155, 238 34.430 M 151.861 37.059 L 149.500 39.119 152.250 37.444 C 153.762 36.523, 155 35.597, 155 35.385 C 155 34.604, 154.165 35.050, 151.861 37.059 M 244 35.350 C 244 35.581, 245.180 36.543, 246.623 37.489 C 248.066 38.434, 248.941 38.713, 248.567 38.109 C 247.854 36.955, 244 34.626, 244 35.350 M 136.405 44.250 L 134.500 46.500 136.750 44.595 C 138.864 42.805, 139.455 42, 138.655 42 C 138.465 42, 137.453 43.013, 136.405 44.250 M 261.500 44 C 262.495 45.100, 263.535 46, 263.810 46 C 264.085 46, 263.495 45.100, 262.500 44 C 261.505 42.900, 260.465 42, 260.190 42 C 259.915 42, 260.505 42.900, 261.500 44 M 140.437 46.250 L 137.500 49.500 140.750 46.563 C 143.779 43.825, 144.460 43, 143.687 43 C 143.515 43, 142.052 44.462, 140.437 46.250 M 258.500 47 C 260.648 49.200, 262.631 51, 262.906 51 C 263.181 51, 261.648 49.200, 259.500 47 C 257.352 44.800, 255.369 43, 255.094 43 C 254.819 43, 256.352 44.800, 258.500 47 M 191 49.903 C 189.075 50.255, 192.900 50.550, 199.500 50.559 C 207.482 50.570, 210.161 50.331, 207.500 49.845 C 202.782 48.984, 195.895 49.008, 191 49.903 M 182.500 52 C 181.239 52.542, 181.055 52.859, 182 52.859 C 182.825 52.859, 184.400 52.473, 185.500 52 C 186.761 51.458, 186.945 51.141, 186 51.141 C 185.175 51.141, 183.600 51.527, 182.500 52 M 213.500 52 C 214.600 52.473, 216.175 52.859, 217 52.859 C 217.945 52.859, 217.761 52.542, 216.500 52 C 215.400 51.527, 213.825 51.141, 213 51.141 C 212.055 51.141, 212.239 51.458, 213.500 52 M 175.222 54.661 C 173.419 55.550, 172.105 56.438, 172.301 56.635 C 172.498 56.831, 174.423 56.112, 176.579 55.036 C 178.736 53.960, 180.050 53.072, 179.500 53.063 C 178.950 53.053, 177.025 53.773, 175.222 54.661 M 222.429 54.964 C 224.589 56.084, 226.602 57, 226.901 57 C 228.136 57, 223.310 54.218, 221 53.599 C 219.563 53.214, 220.170 53.794, 222.429 54.964 M 130.278 58.250 C 128.779 60.188, 127.836 62, 128.326 62 C 128.570 62, 129.507 60.875, 130.408 59.500 C 132.094 56.927, 132 56.024, 130.278 58.250 M 166.400 59.832 C 164.255 61.390, 160.800 64.319, 158.722 66.341 C 154.770 70.189, 146.993 81.518, 147.009 83.405 C 147.015 84.007, 148.418 82.060, 150.128 79.079 C 153.195 73.730, 162.658 63.538, 168.500 59.292 C 170.150 58.092, 171.230 57.086, 170.900 57.056 C 170.570 57.025, 168.545 58.274, 166.400 59.832 M 230.500 59.100 C 236.398 63.507, 245.817 73.750, 248.872 79.079 C 250.582 82.060, 251.985 84.007, 251.991 83.405 C 252.026 79.272, 237.574 62.403, 230.807 58.678 L 227.500 56.858 230.500 59.100 M 268.511 59.377 C 269.457 60.820, 270.419 62, 270.650 62 C 271.374 62, 269.045 58.146, 267.891 57.433 C 267.287 57.059, 267.566 57.934, 268.511 59.377 M 191.269 59.693 C 192.242 59.947, 193.592 59.930, 194.269 59.656 C 194.946 59.382, 194.150 59.175, 192.500 59.195 C 190.850 59.215, 190.296 59.439, 191.269 59.693 M 204.250 59.689 C 205.213 59.941, 206.787 59.941, 207.750 59.689 C 208.713 59.438, 207.925 59.232, 206 59.232 C 204.075 59.232, 203.287 59.438, 204.250 59.689 M 211 61.139 C 211 61.612, 212.125 62, 213.500 62 C 214.875 62, 216 61.827, 216 61.617 C 216 61.406, 214.875 61.018, 213.500 60.755 C 212.125 60.492, 211 60.665, 211 61.139 M 203.269 61.693 C 204.242 61.947, 205.592 61.930, 206.269 61.656 C 206.946 61.382, 206.150 61.175, 204.500 61.195 C 202.850 61.215, 202.296 61.439, 203.269 61.693 M 172.861 67.059 L 170.500 69.119 173.250 67.444 C 174.762 66.523, 176 65.597, 176 65.385 C 176 64.604, 175.165 65.050, 172.861 67.059 M 238 68.500 C 239.866 70.425, 241.617 72, 241.892 72 C 242.167 72, 240.866 70.425, 239 68.500 C 237.134 66.575, 235.383 65, 235.108 65 C 234.833 65, 236.134 66.575, 238 68.500 M 173.965 72.542 C 172.924 73.797, 172.928 74.310, 173.989 75.292 C 175.016 76.243, 175.137 76.224, 174.561 75.206 C 174.158 74.495, 174.372 73.257, 175.036 72.456 C 175.701 71.655, 176.020 71, 175.745 71 C 175.470 71, 174.669 71.694, 173.965 72.542 M 155.872 73.750 C 154.658 75.298, 154.683 75.357, 156.092 74.259 C 156.968 73.576, 158.052 73.351, 158.502 73.759 C 158.952 74.166, 158.997 73.938, 158.601 73.250 C 157.672 71.634, 157.508 71.664, 155.872 73.750 M 123.345 75.543 C 123.019 76.392, 122.976 77.310, 123.249 77.583 C 123.523 77.856, 123.986 77.161, 124.279 76.040 C 124.903 73.657, 124.210 73.289, 123.345 75.543 M 161.226 75.579 C 162.176 76.570, 163.168 77.166, 163.431 76.903 C 163.694 76.640, 162.917 75.829, 161.705 75.100 C 159.598 73.835, 159.577 73.857, 161.226 75.579 M 274.731 76.080 C 275.085 77.432, 275.538 77.886, 275.788 77.137 C 276.028 76.415, 275.750 75.350, 275.168 74.768 C 274.426 74.026, 274.296 74.417, 274.731 76.080 M 168.041 81.612 C 168.085 82.591, 174 89.773, 174 88.850 C 174 88.534, 172.650 86.576, 171 84.500 C 169.350 82.424, 168.018 81.124, 168.041 81.612 M 157.507 82.989 C 157.166 83.541, 157.537 83.731, 158.347 83.420 C 161.154 82.343, 161.034 84.970, 158.033 90.288 C 156.365 93.244, 155.005 96.075, 155.011 96.581 C 155.018 97.086, 156.612 94.645, 158.555 91.155 C 161.336 86.157, 161.839 84.511, 160.921 83.405 C 159.552 81.756, 158.359 81.610, 157.507 82.989 M 148.624 85.539 C 147.659 88.053, 147.943 88.702, 149.122 86.675 C 149.706 85.671, 149.973 84.639, 149.715 84.382 C 149.458 84.124, 148.966 84.645, 148.624 85.539 M 155.624 86.539 C 154.659 89.053, 154.943 89.702, 156.122 87.675 C 156.706 86.671, 156.973 85.639, 156.715 85.382 C 156.458 85.124, 155.966 85.645, 155.624 86.539 M 144.684 88.382 C 144.308 89.362, 144.029 90.914, 144.063 91.832 C 144.105 92.937, 144.453 92.685, 145.092 91.086 C 145.623 89.758, 145.902 88.206, 145.712 87.636 C 145.522 87.067, 145.059 87.403, 144.684 88.382 M 253.086 88 C 253.116 88.825, 253.527 90.400, 254 91.500 L 254.859 93.500 254.914 91.500 C 254.945 90.400, 254.533 88.825, 254 88 C 253.138 86.667, 253.037 86.667, 253.086 88 M 119.158 91 C 119.158 92.375, 119.385 92.938, 119.662 92.250 C 119.940 91.563, 119.940 90.438, 119.662 89.750 C 119.385 89.063, 119.158 89.625, 119.158 91 M 279.158 91 C 279.158 92.375, 279.385 92.938, 279.662 92.250 C 279.940 91.563, 279.940 90.438, 279.662 89.750 C 279.385 89.063, 279.158 89.625, 279.158 91 M 112.158 92 C 112.158 93.375, 112.385 93.938, 112.662 93.250 C 112.940 92.563, 112.940 91.438, 112.662 90.750 C 112.385 90.063, 112.158 90.625, 112.158 92 M 286.158 92 C 286.158 93.375, 286.385 93.938, 286.662 93.250 C 286.940 92.563, 286.940 91.438, 286.662 90.750 C 286.385 90.063, 286.158 90.625, 286.158 92 M 146.158 94 C 146.158 95.375, 146.385 95.938, 146.662 95.250 C 146.940 94.563, 146.940 93.438, 146.662 92.750 C 146.385 92.063, 146.158 92.625, 146.158 94 M 176.080 94 C 177.538 97.061, 178 97.628, 178 96.358 C 178 95.821, 177.300 94.509, 176.445 93.441 C 174.978 91.611, 174.958 91.643, 176.080 94 M 142.625 97.125 C 141.840 101.051, 141.985 113.738, 142.850 116.809 C 143.207 118.079, 143.500 113.466, 143.500 106.559 C 143.500 99.652, 143.444 94, 143.375 94 C 143.306 94, 142.969 95.406, 142.625 97.125 M 255.500 106.490 C 255.500 113.427, 255.793 118.067, 256.150 116.801 C 256.508 115.535, 256.801 110.900, 256.801 106.500 C 256.801 102.100, 256.508 97.460, 256.150 96.189 C 255.793 94.918, 255.500 99.553, 255.500 106.490 M 152.100 98.691 C 152.045 100.446, 152.450 102.160, 153 102.500 C 154.150 103.211, 154.150 101.591, 153 98 C 152.235 95.613, 152.195 95.644, 152.100 98.691 M 178.086 98.500 C 178.190 100.394, 179.856 103.584, 179.914 102 C 179.945 101.175, 179.533 99.825, 179 99 C 178.467 98.175, 178.055 97.950, 178.086 98.500 M 115.328 106.500 C 115.333 110.350, 115.513 111.802, 115.730 109.728 C 115.946 107.653, 115.943 104.503, 115.722 102.728 C 115.501 100.952, 115.324 102.650, 115.328 106.500 M 283.328 106.500 C 283.333 110.350, 283.513 111.802, 283.730 109.728 C 283.946 107.653, 283.943 104.503, 283.722 102.728 C 283.501 100.952, 283.324 102.650, 283.328 106.500 M 111.286 106.500 C 111.294 109.250, 111.488 110.256, 111.718 108.736 C 111.947 107.216, 111.941 104.966, 111.704 103.736 C 111.467 102.506, 111.279 103.750, 111.286 106.500 M 287.286 106.500 C 287.294 109.250, 287.488 110.256, 287.718 108.736 C 287.947 107.216, 287.941 104.966, 287.704 103.736 C 287.467 102.506, 287.279 103.750, 287.286 106.500 M 216.589 106.856 C 216.298 107.326, 217.059 107.526, 218.280 107.301 C 220.073 106.969, 224.975 111.385, 243.750 130.244 C 256.538 143.088, 267 153.347, 267 153.041 C 267 151.601, 220.277 106, 218.801 106 C 217.875 106, 216.880 106.385, 216.589 106.856 M 181.195 110.500 C 181.215 112.150, 181.439 112.704, 181.693 111.731 C 181.947 110.758, 181.930 109.408, 181.656 108.731 C 181.382 108.054, 181.175 108.850, 181.195 110.500 M 232.461 136.015 C 253.263 156.798, 258.198 162.225, 257 163 C 256.099 163.582, 255.975 163.975, 256.691 163.985 C 260.759 164.037, 257.041 159.554, 233.386 135.886 C 219.157 121.649, 207.269 110, 206.968 110 C 206.668 110, 218.139 121.707, 232.461 136.015 M 205.528 116.852 C 212.730 124.975, 252.196 164, 253.210 164 C 253.828 164, 254.129 163.887, 253.879 163.750 C 253.629 163.613, 241.979 152.250, 227.991 138.500 C 214.002 124.750, 203.894 115.008, 205.528 116.852 M 146.158 119 C 146.158 120.375, 146.385 120.938, 146.662 120.250 C 146.940 119.563, 146.940 118.438, 146.662 117.750 C 146.385 117.063, 146.158 117.625, 146.158 119 M 112.158 121 C 112.158 122.375, 112.385 122.938, 112.662 122.250 C 112.940 121.563, 112.940 120.438, 112.662 119.750 C 112.385 119.063, 112.158 119.625, 112.158 121 M 286.158 121 C 286.158 122.375, 286.385 122.938, 286.662 122.250 C 286.940 121.563, 286.940 120.438, 286.662 119.750 C 286.385 119.063, 286.158 119.625, 286.158 121 M 119.195 122.500 C 119.215 124.150, 119.439 124.704, 119.693 123.731 C 119.947 122.758, 119.930 121.408, 119.656 120.731 C 119.382 120.054, 119.175 120.850, 119.195 122.500 M 279.195 122.500 C 279.215 124.150, 279.439 124.704, 279.693 123.731 C 279.947 122.758, 279.930 121.408, 279.656 120.731 C 279.382 120.054, 279.175 120.850, 279.195 122.500 M 204 140.500 C 214.164 150.675, 222.705 159, 222.980 159 C 223.255 159, 215.164 150.675, 205 140.500 C 194.836 130.325, 186.295 122, 186.020 122 C 185.745 122, 193.836 130.325, 204 140.500 M 199.667 123.667 C 199.300 124.033, 199 125.050, 199 125.925 C 199 127.330, 242.685 172, 244.059 172 C 244.358 172, 234.541 161.988, 222.245 149.750 C 204.055 131.646, 199.967 127.081, 200.306 125.250 C 200.756 122.821, 200.686 122.647, 199.667 123.667 M 226.369 146.627 C 241.885 162.310, 249.759 170.944, 248.869 171.298 C 248.011 171.639, 247.944 171.872, 248.691 171.921 C 249.346 171.964, 250.108 171.634, 250.385 171.186 C 250.662 170.739, 240.001 159.601, 226.694 146.436 L 202.500 122.500 226.369 146.627 M 148.031 125.500 C 148.031 126.050, 148.467 127.175, 149 128 C 149.533 128.825, 149.969 129.050, 149.969 128.500 C 149.969 127.950, 149.533 126.825, 149 126 C 148.467 125.175, 148.031 124.950, 148.031 125.500 M 121.141 130 C 121.141 130.825, 121.527 132.400, 122 133.500 C 122.542 134.761, 122.859 134.945, 122.859 134 C 122.859 133.175, 122.473 131.600, 122 130.500 C 121.458 129.239, 121.141 129.055, 121.141 130 M 251 129.711 C 251 130.285, 251.787 131.373, 252.750 132.128 C 254.369 133.397, 254.390 133.350, 253.033 131.500 C 252.226 130.400, 251.439 129.313, 251.283 129.083 C 251.127 128.854, 251 129.137, 251 129.711 M 276.571 131.571 C 276.204 133.037, 276.096 134.429, 276.331 134.665 C 276.567 134.900, 277.061 133.894, 277.429 132.429 C 277.796 130.963, 277.904 129.571, 277.669 129.335 C 277.433 129.100, 276.939 130.106, 276.571 131.571 M 152.970 135.944 C 153.543 137.014, 154.505 138.194, 155.109 138.567 C 155.713 138.941, 155.434 138.066, 154.489 136.623 C 152.487 133.568, 151.451 133.105, 152.970 135.944 M 123.031 136.500 C 123.031 137.050, 123.467 138.175, 124 139 C 124.533 139.825, 124.969 140.050, 124.969 139.500 C 124.969 138.950, 124.533 137.825, 124 137 C 123.467 136.175, 123.031 135.950, 123.031 136.500 M 274.624 137.539 C 273.659 140.053, 273.943 140.702, 275.122 138.675 C 275.706 137.671, 275.973 136.639, 275.715 136.382 C 275.458 136.124, 274.966 136.645, 274.624 137.539 M 160.500 145 C 162.648 147.200, 164.631 149, 164.906 149 C 165.181 149, 163.648 147.200, 161.500 145 C 159.352 142.800, 157.369 141, 157.094 141 C 156.819 141, 158.352 142.800, 160.500 145 M 156 143.678 C 156 144.235, 157.012 145.547, 158.250 146.595 L 160.500 148.500 158.511 146 C 157.417 144.625, 156.404 143.313, 156.261 143.083 C 156.117 142.854, 156 143.122, 156 143.678 M 128 147 C 128.589 148.100, 129.295 149, 129.570 149 C 129.845 149, 129.589 148.100, 129 147 C 128.411 145.900, 127.705 145, 127.430 145 C 127.155 145, 127.411 145.900, 128 147 M 270.458 146.068 C 270.095 146.656, 269.105 146.870, 268.257 146.545 C 266.980 146.055, 266.933 146.214, 267.981 147.477 C 269.593 149.419, 269.715 149.400, 271 147 C 272.100 144.944, 271.641 144.155, 270.458 146.068 M 127.693 151.077 C 128.687 152.769, 130.139 154.682, 130.920 155.327 C 131.701 155.972, 131.079 154.588, 129.537 152.250 C 126.300 147.342, 125.024 146.530, 127.693 151.077 M 131.679 152.811 C 132.681 154.633, 136.296 159.187, 139.713 162.932 C 143.130 166.677, 145.605 170.062, 145.213 170.454 C 144.821 170.846, 145.031 171.017, 145.681 170.833 C 146.330 170.650, 149.705 172.411, 153.181 174.746 C 156.656 177.081, 163.018 180.521, 167.318 182.390 C 171.618 184.259, 174.543 185.986, 173.818 186.229 C 173.093 186.471, 174.075 186.670, 176 186.670 C 177.925 186.671, 181.750 186.973, 184.500 187.342 C 189.256 187.979, 189.208 187.943, 183.500 186.600 C 169.046 183.199, 159.499 178.677, 148.760 170.142 C 144.635 166.865, 139.402 161.779, 137.132 158.841 C 129.806 149.363, 129.746 149.297, 131.679 152.811 M 268.511 153.623 C 267.566 155.066, 267.287 155.941, 267.891 155.567 C 269.045 154.854, 271.374 151, 270.650 151 C 270.419 151, 269.457 152.180, 268.511 153.623 M 259 153.986 C 259.825 154.527, 261.587 154.976, 262.917 154.985 C 266.126 155.005, 265.313 154.436, 261 153.645 C 258.538 153.193, 257.945 153.294, 259 153.986 M 170 155.430 C 170 155.705, 170.900 156.411, 172 157 C 173.100 157.589, 174 157.845, 174 157.570 C 174 157.295, 173.100 156.589, 172 156 C 170.900 155.411, 170 155.155, 170 155.430 M 127.100 157.705 C 127.829 158.917, 128.640 159.694, 128.903 159.431 C 129.166 159.168, 128.570 158.176, 127.579 157.226 C 125.857 155.577, 125.835 155.598, 127.100 157.705 M 270.980 157.524 C 270.284 158.362, 269.909 159.242, 270.145 159.479 C 270.382 159.715, 271.125 159.030, 271.796 157.955 C 273.248 155.630, 272.764 155.375, 270.980 157.524 M 212.765 159.658 C 214.010 159.925, 214.771 160.561, 214.456 161.071 C 214.140 161.582, 214.396 162, 215.024 162 C 217.271 162, 215.295 159.497, 212.922 159.336 C 210.653 159.183, 210.643 159.203, 212.765 159.658 M 191.269 160.693 C 192.242 160.947, 193.592 160.930, 194.269 160.656 C 194.946 160.382, 194.150 160.175, 192.500 160.195 C 190.850 160.215, 190.296 160.439, 191.269 160.693 M 205.269 160.693 C 206.242 160.947, 207.592 160.930, 208.269 160.656 C 208.946 160.382, 208.150 160.175, 206.500 160.195 C 204.850 160.215, 204.296 160.439, 205.269 160.693 M 139.500 166 C 141.648 168.200, 143.631 170, 143.906 170 C 144.181 170, 142.648 168.200, 140.500 166 C 138.352 163.800, 136.369 162, 136.094 162 C 135.819 162, 137.352 163.800, 139.500 166 M 258.453 166.250 L 254.500 170.500 258.750 166.547 C 262.702 162.871, 263.460 162, 262.703 162 C 262.540 162, 260.627 163.912, 258.453 166.250 M 195.776 163.733 C 198.128 163.945, 201.728 163.942, 203.776 163.727 C 205.824 163.512, 203.900 163.339, 199.500 163.343 C 195.100 163.346, 193.424 163.522, 195.776 163.733 M 137 169.500 C 138.292 170.875, 139.574 172, 139.849 172 C 140.124 172, 139.292 170.875, 138 169.500 C 136.708 168.125, 135.426 167, 135.151 167 C 134.876 167, 135.708 168.125, 137 169.500 M 260.924 169.750 L 258.500 172.500 261.250 170.076 C 262.762 168.742, 264 167.505, 264 167.326 C 264 166.541, 263.190 167.180, 260.924 169.750 M 235.500 179.703 C 231.231 182.013, 222.497 184.993, 215.500 186.526 C 212.200 187.249, 210.560 187.877, 211.856 187.921 C 217.091 188.097, 239 180.544, 239 178.563 C 239 177.817, 238.966 177.828, 235.500 179.703 M 195.280 188.736 C 197.909 188.943, 201.959 188.940, 204.280 188.731 C 206.601 188.521, 204.450 188.352, 199.500 188.355 C 194.550 188.358, 192.651 188.530, 195.280 188.736 M 194.784 190.738 C 197.689 190.941, 202.189 190.939, 204.784 190.734 C 207.378 190.528, 205 190.363, 199.500 190.365 C 194 190.368, 191.878 190.536, 194.784 190.738 M 190.768 194.725 C 192.565 194.947, 195.265 194.943, 196.768 194.715 C 198.271 194.486, 196.800 194.304, 193.500 194.310 C 190.200 194.315, 188.971 194.502, 190.768 194.725 M 202.768 194.725 C 204.565 194.947, 207.265 194.943, 208.768 194.715 C 210.271 194.486, 208.800 194.304, 205.500 194.310 C 202.200 194.315, 200.971 194.502, 202.768 194.725 M 83.250 209.689 C 84.213 209.941, 85.787 209.941, 86.750 209.689 C 87.713 209.438, 86.925 209.232, 85 209.232 C 83.075 209.232, 82.287 209.438, 83.250 209.689 M 163.250 209.689 C 164.213 209.941, 165.787 209.941, 166.750 209.689 C 167.713 209.438, 166.925 209.232, 165 209.232 C 163.075 209.232, 162.287 209.438, 163.250 209.689 M 228.250 209.689 C 229.213 209.941, 230.787 209.941, 231.750 209.689 C 232.713 209.438, 231.925 209.232, 230 209.232 C 228.075 209.232, 227.287 209.438, 228.250 209.689 M 259.269 209.693 C 260.242 209.947, 261.592 209.930, 262.269 209.656 C 262.946 209.382, 262.150 209.175, 260.500 209.195 C 258.850 209.215, 258.296 209.439, 259.269 209.693 M 337.250 209.689 C 338.212 209.941, 339.788 209.941, 340.750 209.689 C 341.712 209.438, 340.925 209.232, 339 209.232 C 337.075 209.232, 336.288 209.438, 337.250 209.689 M 20 212.500 C 20 214.751, 20.374 214.984, 23.750 214.840 C 27.442 214.682, 27.450 214.674, 24.250 214.277 C 22.322 214.037, 21 213.303, 21 212.473 C 21 211.390, 23.214 210.998, 30.750 210.746 L 40.500 210.419 30.250 210.209 L 20 210 20 212.500 M 47.269 210.693 C 48.242 210.947, 49.592 210.930, 50.269 210.656 C 50.946 210.382, 50.150 210.175, 48.500 210.195 C 46.850 210.215, 46.296 210.439, 47.269 210.693 M 61.204 218.750 L 61.407 227.500 61.743 219.314 C 62.052 211.793, 62.258 211.094, 64.289 210.701 C 66.137 210.343, 66.048 210.250, 63.750 210.136 L 61 210 61.204 218.750 M 120.750 210.737 C 124.290 210.985, 126 211.541, 126 212.445 C 126 213.183, 125.325 214.045, 124.500 214.362 C 122.374 215.177, 122.270 242.480, 124.389 243.700 C 125.152 244.140, 126 245.400, 126.273 246.500 C 126.717 248.293, 126.780 248.264, 126.884 246.219 C 126.948 244.964, 126.325 243.678, 125.500 243.362 C 124.266 242.888, 124 240.320, 124 228.893 C 124 217.210, 124.239 215, 125.500 215 C 126.433 215, 127 214.056, 127 212.500 C 127 210.102, 126.766 210.008, 121.250 210.185 L 115.500 210.370 120.750 210.737 M 134.440 211.296 C 134.166 212.009, 134.081 219.096, 134.251 227.046 L 134.559 241.500 134.780 226.250 L 135 211 141 211 C 145.560 211, 147 211.346, 147 212.443 C 147 213.413, 145.609 214.010, 142.750 214.268 L 138.500 214.651 143.250 214.825 C 147.697 214.989, 148 214.840, 148 212.500 C 148 210.089, 147.769 210, 141.469 210 C 137.042 210, 134.777 210.418, 134.440 211.296 M 185.750 210.662 C 186.438 210.940, 187.563 210.940, 188.250 210.662 C 188.938 210.385, 188.375 210.158, 187 210.158 C 185.625 210.158, 185.063 210.385, 185.750 210.662 M 205.445 211.284 C 205.174 211.990, 205.086 220.652, 205.251 230.534 L 205.549 248.500 205.775 229.750 C 205.990 211.812, 206.086 211, 207.978 211 C 209.868 211, 209.969 211.836, 210.251 229.750 L 210.547 248.500 210.773 229.250 L 211 210 208.469 210 C 207.076 210, 205.716 210.578, 205.445 211.284 M 290.500 210.732 C 291.600 211.007, 292.831 211.742, 293.235 212.366 C 293.701 213.086, 293.975 212.861, 293.985 211.750 C 293.996 210.476, 293.252 210.032, 291.250 210.116 C 289.142 210.205, 288.967 210.349, 290.500 210.732 M 303 210.387 C 303 210.599, 304.326 210.968, 305.947 211.206 C 307.568 211.443, 308.667 211.270, 308.388 210.819 C 307.893 210.017, 303 209.625, 303 210.387 M 319.269 210.693 C 320.242 210.947, 321.592 210.930, 322.269 210.656 C 322.946 210.382, 322.150 210.175, 320.500 210.195 C 318.850 210.215, 318.296 210.439, 319.269 210.693 M 356.212 221.250 L 356.425 232.500 356.746 221.750 C 357.041 211.905, 357.230 211, 358.999 211 C 360.760 211, 360.958 211.900, 361.254 221.250 L 361.578 231.500 361.789 220.750 L 362 210 359 210 L 356 210 356.212 221.250 M 373.716 210.701 C 375.804 211.105, 375.950 211.717, 376.255 221.315 L 376.578 231.500 376.789 220.750 L 377 210 374.250 210.136 C 371.944 210.250, 371.858 210.342, 373.716 210.701 M 237.100 212.705 C 237.829 213.917, 238.640 214.694, 238.903 214.431 C 239.166 214.168, 238.570 213.176, 237.579 212.226 C 235.857 210.577, 235.835 210.598, 237.100 212.705 M 253.029 211.961 C 252.220 212.473, 251.818 213.152, 252.136 213.470 C 252.455 213.788, 253.284 213.362, 253.980 212.524 C 255.423 210.786, 255.146 210.622, 253.029 211.961 M 317.158 215 C 317.158 216.375, 317.385 216.938, 317.662 216.250 C 317.940 215.563, 317.940 214.438, 317.662 213.750 C 317.385 213.063, 317.158 213.625, 317.158 215 M 32.442 215.290 C 32.170 216, 32.084 223.762, 32.251 232.540 L 32.555 248.500 32.777 231.810 L 33 215.121 36.750 214.728 L 40.500 214.336 36.719 214.168 C 34.420 214.066, 32.743 214.506, 32.442 215.290 M 225.667 214.667 C 225.300 215.033, 225 216.661, 225 218.283 C 225 220.891, 224.710 221.178, 222.500 220.755 C 221.125 220.492, 220 220.695, 220 221.205 C 220 221.715, 221.232 221.990, 222.738 221.816 C 225.047 221.550, 225.571 220.912, 226.081 217.750 C 226.723 213.764, 226.705 213.628, 225.667 214.667 M 348.409 231.500 C 348.408 240.850, 348.558 244.810, 348.743 240.299 C 348.928 235.789, 348.929 228.139, 348.745 223.299 C 348.562 218.460, 348.410 222.150, 348.409 231.500 M 75.392 229 C 75.392 236.425, 75.549 239.463, 75.742 235.750 C 75.934 232.037, 75.934 225.963, 75.742 222.250 C 75.549 218.537, 75.392 221.575, 75.392 229 M 94.990 223.205 C 94.720 227.442, 94.860 230.548, 95.299 230.106 C 95.739 229.663, 95.959 226.196, 95.789 222.401 L 95.480 215.500 94.990 223.205 M 234 220.940 L 234 225.879 230.250 226.272 L 226.500 226.664 230.750 226.832 L 235 227 235 221.500 C 235 218.475, 234.775 216, 234.500 216 C 234.225 216, 234 218.223, 234 220.940 M 334 218.430 C 334 220.156, 333.347 220.987, 331.750 221.294 C 329.821 221.666, 329.892 221.747, 332.250 221.864 C 334.669 221.984, 335 221.639, 335 219 C 335 217.350, 334.775 216, 334.500 216 C 334.225 216, 334 217.094, 334 218.430 M 80.180 221.802 L 80 227.105 85.250 226.802 L 90.500 226.500 90.602 221.500 L 90.704 216.500 90.297 221.250 L 89.890 226 85.500 226 L 81.110 226 80.735 221.250 L 80.360 216.500 80.180 221.802 M 155.336 219 C 155.463 220.934, 156.123 221.572, 158.250 221.816 C 159.762 221.990, 161 221.715, 161 221.205 C 161 220.695, 159.912 220.485, 158.583 220.739 C 156.669 221.105, 156.062 220.712, 155.669 218.851 C 155.193 216.599, 155.179 216.605, 155.336 219 M 295.158 224 C 295.158 225.375, 295.385 225.938, 295.662 225.250 C 295.940 224.563, 295.940 223.438, 295.662 222.750 C 295.385 222.063, 295.158 222.625, 295.158 224 M 164.762 226.707 C 166.006 226.946, 167.806 226.937, 168.762 226.687 C 169.718 226.437, 168.700 226.241, 166.500 226.252 C 164.300 226.263, 163.518 226.468, 164.762 226.707 M 320.158 228 C 320.158 229.375, 320.385 229.938, 320.662 229.250 C 320.940 228.563, 320.940 227.438, 320.662 226.750 C 320.385 226.063, 320.158 226.625, 320.158 228 M 338.762 226.707 C 340.006 226.946, 341.806 226.937, 342.762 226.687 C 343.718 226.437, 342.700 226.241, 340.500 226.252 C 338.300 226.263, 337.518 226.468, 338.762 226.707 M 156.872 228.750 C 155.603 230.369, 155.650 230.390, 157.500 229.033 C 158.600 228.226, 159.688 227.439, 159.917 227.283 C 160.146 227.127, 159.863 227, 159.289 227 C 158.715 227, 157.627 227.787, 156.872 228.750 M 61.355 239.500 C 61.352 244.450, 61.521 246.601, 61.731 244.280 C 61.940 241.959, 61.943 237.909, 61.736 235.280 C 61.530 232.651, 61.358 234.550, 61.355 239.500 M 80.310 236.500 C 80.315 239.800, 80.502 241.029, 80.725 239.232 C 80.947 237.435, 80.943 234.735, 80.715 233.232 C 80.486 231.729, 80.304 233.200, 80.310 236.500 M 155.328 237.500 C 155.333 241.350, 155.513 242.802, 155.730 240.728 C 155.946 238.653, 155.943 235.503, 155.722 233.728 C 155.501 231.952, 155.324 233.650, 155.328 237.500 M 234.286 235.500 C 234.294 238.250, 234.488 239.256, 234.718 237.736 C 234.947 236.216, 234.941 233.966, 234.704 232.736 C 234.467 231.506, 234.279 232.750, 234.286 235.500 M 219.286 237.500 C 219.294 240.250, 219.488 241.256, 219.718 239.736 C 219.947 238.216, 219.941 235.966, 219.704 234.736 C 219.467 233.506, 219.279 234.750, 219.286 237.500 M 144.286 238.500 C 144.294 241.250, 144.488 242.256, 144.718 240.736 C 144.947 239.216, 144.941 236.966, 144.704 235.736 C 144.467 234.506, 144.279 235.750, 144.286 238.500 M 149.286 238.500 C 149.294 241.250, 149.488 242.256, 149.718 240.736 C 149.947 239.216, 149.941 236.966, 149.704 235.736 C 149.467 234.506, 149.279 235.750, 149.286 238.500 M 224.252 237.500 C 224.263 239.700, 224.468 240.482, 224.707 239.238 C 224.946 237.994, 224.937 236.194, 224.687 235.238 C 224.437 234.282, 224.241 235.300, 224.252 237.500 M 292.158 237 C 292.158 238.375, 292.385 238.938, 292.662 238.250 C 292.940 237.563, 292.940 236.438, 292.662 235.750 C 292.385 235.063, 292.158 235.625, 292.158 237 M 297.667 235.667 C 297.300 236.033, 297.014 237.046, 297.030 237.917 C 297.055 239.217, 297.251 239.174, 298.122 237.675 C 299.199 235.823, 298.887 234.447, 297.667 235.667 M 90.158 239 C 90.158 240.375, 90.385 240.938, 90.662 240.250 C 90.940 239.563, 90.940 238.438, 90.662 237.750 C 90.385 237.063, 90.158 237.625, 90.158 239 M 95.195 239.500 C 95.215 241.150, 95.439 241.704, 95.693 240.731 C 95.947 239.758, 95.930 238.408, 95.656 237.731 C 95.382 237.054, 95.175 237.850, 95.195 239.500 M 318.158 241 C 318.158 242.375, 318.385 242.938, 318.662 242.250 C 318.940 241.563, 318.940 240.438, 318.662 239.750 C 318.385 239.063, 318.158 239.625, 318.158 241 M 191.768 243.725 C 193.565 243.947, 196.265 243.943, 197.768 243.715 C 199.271 243.486, 197.800 243.304, 194.500 243.310 C 191.200 243.315, 189.971 243.502, 191.768 243.725 M 310.158 245 C 310.158 246.375, 310.385 246.938, 310.662 246.250 C 310.940 245.563, 310.940 244.438, 310.662 243.750 C 310.385 243.063, 310.158 243.625, 310.158 245 M 83.750 244.662 C 84.438 244.940, 85.563 244.940, 86.250 244.662 C 86.938 244.385, 86.375 244.158, 85 244.158 C 83.625 244.158, 83.063 244.385, 83.750 244.662 M 168.872 246.750 C 167.662 248.294, 167.686 248.355, 169.074 247.274 C 170.317 246.306, 170.907 246.306, 171.883 247.274 C 172.861 248.244, 172.980 248.135, 172.452 246.750 C 172.086 245.787, 171.439 245, 171.015 245 C 170.592 245, 169.627 245.787, 168.872 246.750" stroke="none" fill="#faf9f8" fill-rule="evenodd"/></svg>